<?xml version="1.0" encoding="UTF-8" standalone="no"?>
<!DOCTYPE svg PUBLIC "-//W3C//DTD SVG 1.1//EN"
 "http://www.w3.org/Graphics/SVG/1.1/DTD/svg11.dtd">
<!-- Generated by graphviz version 2.48.0 (20210717.1556)
 -->
<!-- Title: model_graph Pages: 1 -->
<svg width="338pt" height="497pt"
 viewBox="0.00 0.00 338.00 497.00" xmlns="http://www.w3.org/2000/svg" xmlns:xlink="http://www.w3.org/1999/xlink">
<g id="graph0" class="graph" transform="scale(1 1) rotate(0) translate(4 493)">
<title>model_graph</title>
<polygon fill="white" stroke="transparent" points="-4,4 -4,-493 334,-493 334,4 -4,4"/>
<g id="clust1" class="cluster">
<title>cluster_rank</title>
<path fill="none" stroke="#698b22" d="M20,-8C20,-8 310,-8 310,-8 316,-8 322,-14 322,-20 322,-20 322,-469 322,-469 322,-475 316,-481 310,-481 310,-481 20,-481 20,-481 14,-481 8,-475 8,-469 8,-469 8,-20 8,-20 8,-14 14,-8 20,-8"/>
<text text-anchor="start" x="109" y="-465.5" font-family="Roboto" font-size="8.00"> &#160;&#160;&#160;&#160;&#160;&#160;&#160;&#160;&#160;</text>
<text text-anchor="start" x="132" y="-465.5" font-family="Roboto" font-size="10.00"> &#160;&#160;&#160;&#160;&#160;&#160;&#160;&#160;&#160;</text>
<text text-anchor="start" x="155" y="-465.5" font-family="Roboto" font-weight="bold" font-size="10.00">rank</text>
<text text-anchor="start" x="175" y="-465.5" font-family="Roboto" font-size="10.00"> &#160;&#160;&#160;&#160;&#160;&#160;&#160;&#160;&#160;</text>
<text text-anchor="start" x="198" y="-465.5" font-family="Roboto" font-size="8.00"> &#160;&#160;&#160;&#160;&#160;&#160;&#160;&#160;&#160;</text>
</g>
<!-- rank_models_Program -->
<g id="node1" class="node">
<title>rank_models_Program</title>
<polygon fill="white" stroke="transparent" points="24,-20 24,-69 148,-69 148,-20 24,-20"/>
<polygon fill="#1b563f" stroke="transparent" points="25,-46.5 25,-67.5 147,-67.5 147,-46.5 25,-46.5"/>
<text text-anchor="start" x="46.5" y="-55.5" font-family="Roboto" font-size="8.00"> &#160;&#160;&#160;&#160;&#160;</text>
<text text-anchor="start" x="60.5" y="-55.5" font-family="Roboto" font-weight="bold" font-size="10.00" fill="white"> &#160;&#160;&#160;&#160;&#160;Program &#160;&#160;&#160;&#160;&#160;</text>
<text text-anchor="start" x="27" y="-39.1" font-family="Roboto" font-size="8.00"> &#160;&#160;&#160;&#160;&#160;</text>
<text text-anchor="start" x="41" y="-39.1" font-family="Roboto" font-weight="bold" font-size="8.00">code</text>
<text text-anchor="start" x="60" y="-39.1" font-family="Roboto" font-size="8.00"> &#160;&#160;&#160;&#160;&#160;</text>
<text text-anchor="start" x="81" y="-39.1" font-family="Roboto" font-size="8.00"> &#160;&#160;&#160;&#160;&#160;</text>
<text text-anchor="start" x="95" y="-39.1" font-family="Roboto" font-weight="bold" font-size="8.00">CharField</text>
<text text-anchor="start" x="131" y="-39.1" font-family="Roboto" font-size="8.00"> &#160;&#160;&#160;&#160;&#160;</text>
<text text-anchor="start" x="27" y="-26.1" font-family="Roboto" font-size="8.00"> &#160;&#160;&#160;&#160;&#160;</text>
<text text-anchor="start" x="41" y="-26.1" font-family="Roboto" font-size="8.00">name</text>
<text text-anchor="start" x="63" y="-26.1" font-family="Roboto" font-size="8.00"> &#160;&#160;&#160;&#160;&#160;</text>
<text text-anchor="start" x="81" y="-26.1" font-family="Roboto" font-size="8.00"> &#160;&#160;&#160;&#160;&#160;</text>
<text text-anchor="start" x="95" y="-26.1" font-family="Roboto" font-size="8.00">CharField</text>
<text text-anchor="start" x="131" y="-26.1" font-family="Roboto" font-size="8.00"> &#160;&#160;&#160;&#160;&#160;</text>
<polygon fill="none" stroke="black" points="24,-20 24,-69 148,-69 148,-20 24,-20"/>
</g>
<!-- rank_models_College -->
<g id="node2" class="node">
<title>rank_models_College</title>
<polygon fill="white" stroke="transparent" points="182,-20 182,-69 306,-69 306,-20 182,-20"/>
<polygon fill="#1b563f" stroke="transparent" points="183,-46.5 183,-67.5 305,-67.5 305,-46.5 183,-46.5"/>
<text text-anchor="start" x="207" y="-55.5" font-family="Roboto" font-size="8.00"> &#160;&#160;&#160;&#160;&#160;</text>
<text text-anchor="start" x="221" y="-55.5" font-family="Roboto" font-weight="bold" font-size="10.00" fill="white"> &#160;&#160;&#160;&#160;&#160;College &#160;&#160;&#160;&#160;&#160;</text>
<text text-anchor="start" x="185" y="-39.1" font-family="Roboto" font-size="8.00"> &#160;&#160;&#160;&#160;&#160;</text>
<text text-anchor="start" x="199" y="-39.1" font-family="Roboto" font-weight="bold" font-size="8.00">code</text>
<text text-anchor="start" x="218" y="-39.1" font-family="Roboto" font-size="8.00"> &#160;&#160;&#160;&#160;&#160;</text>
<text text-anchor="start" x="239" y="-39.1" font-family="Roboto" font-size="8.00"> &#160;&#160;&#160;&#160;&#160;</text>
<text text-anchor="start" x="253" y="-39.1" font-family="Roboto" font-weight="bold" font-size="8.00">CharField</text>
<text text-anchor="start" x="289" y="-39.1" font-family="Roboto" font-size="8.00"> &#160;&#160;&#160;&#160;&#160;</text>
<text text-anchor="start" x="185" y="-26.1" font-family="Roboto" font-size="8.00"> &#160;&#160;&#160;&#160;&#160;</text>
<text text-anchor="start" x="199" y="-26.1" font-family="Roboto" font-size="8.00">name</text>
<text text-anchor="start" x="221" y="-26.1" font-family="Roboto" font-size="8.00"> &#160;&#160;&#160;&#160;&#160;</text>
<text text-anchor="start" x="239" y="-26.1" font-family="Roboto" font-size="8.00"> &#160;&#160;&#160;&#160;&#160;</text>
<text text-anchor="start" x="253" y="-26.1" font-family="Roboto" font-size="8.00">CharField</text>
<text text-anchor="start" x="289" y="-26.1" font-family="Roboto" font-size="8.00"> &#160;&#160;&#160;&#160;&#160;</text>
<polygon fill="none" stroke="black" points="182,-20 182,-69 306,-69 306,-20 182,-20"/>
</g>
<!-- rank_models_CollegeProgram -->
<g id="node3" class="node">
<title>rank_models_CollegeProgram</title>
<polygon fill="white" stroke="transparent" points="67.5,-122 67.5,-236 262.5,-236 262.5,-122 67.5,-122"/>
<polygon fill="#1b563f" stroke="transparent" points="69,-214 69,-235 262,-235 262,-214 69,-214"/>
<text text-anchor="start" x="110" y="-223" font-family="Roboto" font-size="8.00"> &#160;&#160;&#160;&#160;&#160;</text>
<text text-anchor="start" x="124" y="-223" font-family="Roboto" font-weight="bold" font-size="10.00" fill="white"> &#160;&#160;&#160;&#160;&#160;CollegeProgram &#160;&#160;&#160;&#160;&#160;</text>
<text text-anchor="start" x="71" y="-206.6" font-family="Roboto" font-size="8.00"> &#160;&#160;&#160;&#160;&#160;</text>
<text text-anchor="start" x="85" y="-206.6" font-family="Roboto" font-weight="bold" font-size="8.00">id</text>
<text text-anchor="start" x="92" y="-206.6" font-family="Roboto" font-size="8.00"> &#160;&#160;&#160;&#160;&#160;</text>
<text text-anchor="start" x="135" y="-206.6" font-family="Roboto" font-size="8.00"> &#160;&#160;&#160;&#160;&#160;</text>
<text text-anchor="start" x="149" y="-206.6" font-family="Roboto" font-weight="bold" font-size="8.00">BigAutoField</text>
<text text-anchor="start" x="197" y="-206.6" font-family="Roboto" font-size="8.00"> &#160;&#160;&#160;&#160;&#160;</text>
<text text-anchor="start" x="71" y="-193.6" font-family="Roboto" font-size="8.00"> &#160;&#160;&#160;&#160;&#160;</text>
<text text-anchor="start" x="85" y="-193.6" font-family="Roboto" font-weight="bold" font-size="8.00">college</text>
<text text-anchor="start" x="113" y="-193.6" font-family="Roboto" font-size="8.00"> &#160;&#160;&#160;&#160;&#160;</text>
<text text-anchor="start" x="135" y="-193.6" font-family="Roboto" font-size="8.00"> &#160;&#160;&#160;&#160;&#160;</text>
<text text-anchor="start" x="149" y="-193.6" font-family="Roboto" font-weight="bold" font-size="8.00">ForeignKey (code)</text>
<text text-anchor="start" x="218" y="-193.6" font-family="Roboto" font-size="8.00"> &#160;&#160;&#160;&#160;&#160;</text>
<text text-anchor="start" x="71" y="-180.6" font-family="Roboto" font-size="8.00"> &#160;&#160;&#160;&#160;&#160;</text>
<text text-anchor="start" x="85" y="-180.6" font-family="Roboto" font-weight="bold" font-size="8.00">program</text>
<text text-anchor="start" x="117" y="-180.6" font-family="Roboto" font-size="8.00"> &#160;&#160;&#160;&#160;&#160;</text>
<text text-anchor="start" x="135" y="-180.6" font-family="Roboto" font-size="8.00"> &#160;&#160;&#160;&#160;&#160;</text>
<text text-anchor="start" x="149" y="-180.6" font-family="Roboto" font-weight="bold" font-size="8.00">ForeignKey (code)</text>
<text text-anchor="start" x="218" y="-180.6" font-family="Roboto" font-size="8.00"> &#160;&#160;&#160;&#160;&#160;</text>
<text text-anchor="start" x="71" y="-167.6" font-family="Roboto" font-size="8.00"> &#160;&#160;&#160;&#160;&#160;</text>
<text text-anchor="start" x="85" y="-167.6" font-family="Roboto" font-size="8.00">cutin</text>
<text text-anchor="start" x="104" y="-167.6" font-family="Roboto" font-size="8.00"> &#160;&#160;&#160;&#160;&#160;</text>
<text text-anchor="start" x="135" y="-167.6" font-family="Roboto" font-size="8.00"> &#160;&#160;&#160;&#160;&#160;</text>
<text text-anchor="start" x="149" y="-167.6" font-family="Roboto" font-size="8.00">PositiveIntegerField</text>
<text text-anchor="start" x="224" y="-167.6" font-family="Roboto" font-size="8.00"> &#160;&#160;&#160;&#160;&#160;</text>
<text text-anchor="start" x="71" y="-154.6" font-family="Roboto" font-size="8.00"> &#160;&#160;&#160;&#160;&#160;</text>
<text text-anchor="start" x="85" y="-154.6" font-family="Roboto" font-size="8.00">cutoff</text>
<text text-anchor="start" x="108" y="-154.6" font-family="Roboto" font-size="8.00"> &#160;&#160;&#160;&#160;&#160;</text>
<text text-anchor="start" x="135" y="-154.6" font-family="Roboto" font-size="8.00"> &#160;&#160;&#160;&#160;&#160;</text>
<text text-anchor="start" x="149" y="-154.6" font-family="Roboto" font-size="8.00">PositiveIntegerField</text>
<text text-anchor="start" x="224" y="-154.6" font-family="Roboto" font-size="8.00"> &#160;&#160;&#160;&#160;&#160;</text>
<text text-anchor="start" x="71" y="-141.6" font-family="Roboto" font-size="8.00"> &#160;&#160;&#160;&#160;&#160;</text>
<text text-anchor="start" x="85" y="-141.6" font-family="Roboto" font-size="8.00">seats</text>
<text text-anchor="start" x="107" y="-141.6" font-family="Roboto" font-size="8.00"> &#160;&#160;&#160;&#160;&#160;</text>
<text text-anchor="start" x="135" y="-141.6" font-family="Roboto" font-size="8.00"> &#160;&#160;&#160;&#160;&#160;</text>
<text text-anchor="start" x="149" y="-141.6" font-family="Roboto" font-size="8.00">PositiveSmallIntegerField</text>
<text text-anchor="start" x="246" y="-141.6" font-family="Roboto" font-size="8.00"> &#160;&#160;&#160;&#160;&#160;</text>
<text text-anchor="start" x="71" y="-128.6" font-family="Roboto" font-size="8.00"> &#160;&#160;&#160;&#160;&#160;</text>
<text text-anchor="start" x="85" y="-128.6" font-family="Roboto" font-size="8.00">type</text>
<text text-anchor="start" x="101" y="-128.6" font-family="Roboto" font-size="8.00"> &#160;&#160;&#160;&#160;&#160;</text>
<text text-anchor="start" x="135" y="-128.6" font-family="Roboto" font-size="8.00"> &#160;&#160;&#160;&#160;&#160;</text>
<text text-anchor="start" x="149" y="-128.6" font-family="Roboto" font-size="8.00">CharField</text>
<text text-anchor="start" x="185" y="-128.6" font-family="Roboto" font-size="8.00"> &#160;&#160;&#160;&#160;&#160;</text>
<polygon fill="none" stroke="black" points="67.5,-122 67.5,-236 262.5,-236 262.5,-122 67.5,-122"/>
</g>
<!-- rank_models_CollegeProgram&#45;&gt;rank_models_Program -->
<g id="edge2" class="edge">
<title>rank_models_CollegeProgram&#45;&gt;rank_models_Program</title>
<path fill="none" stroke="black" d="M111.34,-109.23C109.47,-106.16 107.68,-103.07 106,-100 101.41,-91.6 97.48,-81.92 94.34,-73.08"/>
<polygon fill="black" stroke="black" points="108.5,-111.29 116.82,-117.85 114.41,-107.53 108.5,-111.29"/>
<text text-anchor="middle" x="156.5" y="-93.6" font-family="Roboto" font-size="8.00"> program (collegeprogram)</text>
</g>
<!-- rank_models_CollegeProgram&#45;&gt;rank_models_College -->
<g id="edge1" class="edge">
<title>rank_models_CollegeProgram&#45;&gt;rank_models_College</title>
<path fill="none" stroke="black" d="M206.05,-109.15C213.64,-96.42 221.15,-83.82 227.46,-73.24"/>
<polygon fill="black" stroke="black" points="202.92,-107.57 200.8,-117.95 208.93,-111.16 202.92,-107.57"/>
<text text-anchor="middle" x="264.5" y="-93.6" font-family="Roboto" font-size="8.00"> college (collegeprogram)</text>
</g>
<!-- rank_models_Addmission -->
<g id="node4" class="node">
<title>rank_models_Addmission</title>
<polygon fill="white" stroke="transparent" points="54,-289 54,-442 276,-442 276,-289 54,-289"/>
<polygon fill="#1b563f" stroke="transparent" points="55,-419.5 55,-440.5 275,-440.5 275,-419.5 55,-419.5"/>
<text text-anchor="start" x="118.5" y="-428.5" font-family="Roboto" font-size="8.00"> &#160;&#160;&#160;&#160;&#160;</text>
<text text-anchor="start" x="132.5" y="-428.5" font-family="Roboto" font-weight="bold" font-size="10.00" fill="white"> &#160;&#160;&#160;&#160;&#160;Addmission &#160;&#160;&#160;&#160;&#160;</text>
<text text-anchor="start" x="57" y="-412.1" font-family="Roboto" font-size="8.00"> &#160;&#160;&#160;&#160;&#160;</text>
<text text-anchor="start" x="71" y="-412.1" font-family="Roboto" font-weight="bold" font-size="8.00">id</text>
<text text-anchor="start" x="78" y="-412.1" font-family="Roboto" font-size="8.00"> &#160;&#160;&#160;&#160;&#160;</text>
<text text-anchor="start" x="148" y="-412.1" font-family="Roboto" font-size="8.00"> &#160;&#160;&#160;&#160;&#160;</text>
<text text-anchor="start" x="162" y="-412.1" font-family="Roboto" font-weight="bold" font-size="8.00">BigAutoField</text>
<text text-anchor="start" x="210" y="-412.1" font-family="Roboto" font-size="8.00"> &#160;&#160;&#160;&#160;&#160;</text>
<text text-anchor="start" x="57" y="-399.1" font-family="Roboto" font-size="8.00"> &#160;&#160;&#160;&#160;&#160;</text>
<text text-anchor="start" x="71" y="-399.1" font-family="Roboto" font-weight="bold" font-size="8.00">collegeprogram</text>
<text text-anchor="start" x="130" y="-399.1" font-family="Roboto" font-size="8.00"> &#160;&#160;&#160;&#160;&#160;</text>
<text text-anchor="start" x="148" y="-399.1" font-family="Roboto" font-size="8.00"> &#160;&#160;&#160;&#160;&#160;</text>
<text text-anchor="start" x="162" y="-399.1" font-family="Roboto" font-weight="bold" font-size="8.00">ForeignKey (id)</text>
<text text-anchor="start" x="220" y="-399.1" font-family="Roboto" font-size="8.00"> &#160;&#160;&#160;&#160;&#160;</text>
<text text-anchor="start" x="57" y="-386.1" font-family="Roboto" font-size="8.00"> &#160;&#160;&#160;&#160;&#160;</text>
<text text-anchor="start" x="71" y="-386.1" font-family="Roboto" font-size="8.00">batch</text>
<text text-anchor="start" x="93" y="-386.1" font-family="Roboto" font-size="8.00"> &#160;&#160;&#160;&#160;&#160;</text>
<text text-anchor="start" x="148" y="-386.1" font-family="Roboto" font-size="8.00"> &#160;&#160;&#160;&#160;&#160;</text>
<text text-anchor="start" x="162" y="-386.1" font-family="Roboto" font-size="8.00">PositiveSmallIntegerField</text>
<text text-anchor="start" x="259" y="-386.1" font-family="Roboto" font-size="8.00"> &#160;&#160;&#160;&#160;&#160;</text>
<text text-anchor="start" x="57" y="-373.1" font-family="Roboto" font-size="8.00"> &#160;&#160;&#160;&#160;&#160;</text>
<text text-anchor="start" x="71" y="-373.1" font-family="Roboto" font-size="8.00">first_name</text>
<text text-anchor="start" x="112" y="-373.1" font-family="Roboto" font-size="8.00"> &#160;&#160;&#160;&#160;&#160;</text>
<text text-anchor="start" x="148" y="-373.1" font-family="Roboto" font-size="8.00"> &#160;&#160;&#160;&#160;&#160;</text>
<text text-anchor="start" x="162" y="-373.1" font-family="Roboto" font-size="8.00">CharField</text>
<text text-anchor="start" x="198" y="-373.1" font-family="Roboto" font-size="8.00"> &#160;&#160;&#160;&#160;&#160;</text>
<text text-anchor="start" x="57" y="-360.1" font-family="Roboto" font-size="8.00"> &#160;&#160;&#160;&#160;&#160;</text>
<text text-anchor="start" x="71" y="-360.1" font-family="Roboto" font-size="8.00">gender</text>
<text text-anchor="start" x="97" y="-360.1" font-family="Roboto" font-size="8.00"> &#160;&#160;&#160;&#160;&#160;</text>
<text text-anchor="start" x="148" y="-360.1" font-family="Roboto" font-size="8.00"> &#160;&#160;&#160;&#160;&#160;</text>
<text text-anchor="start" x="162" y="-360.1" font-family="Roboto" font-size="8.00">CharField</text>
<text text-anchor="start" x="198" y="-360.1" font-family="Roboto" font-size="8.00"> &#160;&#160;&#160;&#160;&#160;</text>
<text text-anchor="start" x="57" y="-347.1" font-family="Roboto" font-size="8.00"> &#160;&#160;&#160;&#160;&#160;</text>
<text text-anchor="start" x="71" y="-347.1" font-family="Roboto" font-size="8.00">last_name</text>
<text text-anchor="start" x="111" y="-347.1" font-family="Roboto" font-size="8.00"> &#160;&#160;&#160;&#160;&#160;</text>
<text text-anchor="start" x="148" y="-347.1" font-family="Roboto" font-size="8.00"> &#160;&#160;&#160;&#160;&#160;</text>
<text text-anchor="start" x="162" y="-347.1" font-family="Roboto" font-size="8.00">CharField</text>
<text text-anchor="start" x="198" y="-347.1" font-family="Roboto" font-size="8.00"> &#160;&#160;&#160;&#160;&#160;</text>
<text text-anchor="start" x="57" y="-334.1" font-family="Roboto" font-size="8.00"> &#160;&#160;&#160;&#160;&#160;</text>
<text text-anchor="start" x="71" y="-334.1" font-family="Roboto" font-size="8.00">middle_name</text>
<text text-anchor="start" x="122" y="-334.1" font-family="Roboto" font-size="8.00"> &#160;&#160;&#160;&#160;&#160;</text>
<text text-anchor="start" x="148" y="-334.1" font-family="Roboto" font-size="8.00"> &#160;&#160;&#160;&#160;&#160;</text>
<text text-anchor="start" x="162" y="-334.1" font-family="Roboto" font-size="8.00">CharField</text>
<text text-anchor="start" x="198" y="-334.1" font-family="Roboto" font-size="8.00"> &#160;&#160;&#160;&#160;&#160;</text>
<text text-anchor="start" x="57" y="-321.1" font-family="Roboto" font-size="8.00"> &#160;&#160;&#160;&#160;&#160;</text>
<text text-anchor="start" x="71" y="-321.1" font-family="Roboto" font-size="8.00">quota</text>
<text text-anchor="start" x="93" y="-321.1" font-family="Roboto" font-size="8.00"> &#160;&#160;&#160;&#160;&#160;</text>
<text text-anchor="start" x="148" y="-321.1" font-family="Roboto" font-size="8.00"> &#160;&#160;&#160;&#160;&#160;</text>
<text text-anchor="start" x="162" y="-321.1" font-family="Roboto" font-size="8.00">CharField</text>
<text text-anchor="start" x="198" y="-321.1" font-family="Roboto" font-size="8.00"> &#160;&#160;&#160;&#160;&#160;</text>
<text text-anchor="start" x="57" y="-308.1" font-family="Roboto" font-size="8.00"> &#160;&#160;&#160;&#160;&#160;</text>
<text text-anchor="start" x="71" y="-308.1" font-family="Roboto" font-size="8.00">rank</text>
<text text-anchor="start" x="88" y="-308.1" font-family="Roboto" font-size="8.00"> &#160;&#160;&#160;&#160;&#160;</text>
<text text-anchor="start" x="148" y="-308.1" font-family="Roboto" font-size="8.00"> &#160;&#160;&#160;&#160;&#160;</text>
<text text-anchor="start" x="162" y="-308.1" font-family="Roboto" font-size="8.00">PositiveIntegerField</text>
<text text-anchor="start" x="237" y="-308.1" font-family="Roboto" font-size="8.00"> &#160;&#160;&#160;&#160;&#160;</text>
<text text-anchor="start" x="57" y="-295.1" font-family="Roboto" font-size="8.00"> &#160;&#160;&#160;&#160;&#160;</text>
<text text-anchor="start" x="71" y="-295.1" font-family="Roboto" font-size="8.00">score</text>
<text text-anchor="start" x="93" y="-295.1" font-family="Roboto" font-size="8.00"> &#160;&#160;&#160;&#160;&#160;</text>
<text text-anchor="start" x="148" y="-295.1" font-family="Roboto" font-size="8.00"> &#160;&#160;&#160;&#160;&#160;</text>
<text text-anchor="start" x="162" y="-295.1" font-family="Roboto" font-size="8.00">DecimalField</text>
<text text-anchor="start" x="211" y="-295.1" font-family="Roboto" font-size="8.00"> &#160;&#160;&#160;&#160;&#160;</text>
<polygon fill="none" stroke="black" points="54,-289 54,-442 276,-442 276,-289 54,-289"/>
</g>
<!-- rank_models_Addmission&#45;&gt;rank_models_CollegeProgram -->
<g id="edge3" class="edge">
<title>rank_models_Addmission&#45;&gt;rank_models_CollegeProgram</title>
<path fill="none" stroke="black" d="M165,-274.66C165,-262.95 165,-251.18 165,-240.12"/>
<polygon fill="black" stroke="black" points="161.5,-274.92 165,-284.92 168.5,-274.92 161.5,-274.92"/>
<text text-anchor="middle" x="221.5" y="-260.6" font-family="Roboto" font-size="8.00"> collegeprogram (addmission)</text>
</g>
</g>
</svg>
