<?xml version="1.0" encoding="UTF-8" standalone="no"?>
<!DOCTYPE svg PUBLIC "-//W3C//DTD SVG 1.1//EN"
 "http://www.w3.org/Graphics/SVG/1.1/DTD/svg11.dtd">
<!-- Generated by graphviz version 2.48.0 (20210717.1556)
 -->
<!-- Title: model_graph Pages: 1 -->
<svg width="558pt" height="510pt"
 viewBox="0.00 0.00 558.00 510.00" xmlns="http://www.w3.org/2000/svg" xmlns:xlink="http://www.w3.org/1999/xlink">
<g id="graph0" class="graph" transform="scale(1 1) rotate(0) translate(4 506)">
<title>model_graph</title>
<polygon fill="white" stroke="transparent" points="-4,4 -4,-506 554,-506 554,4 -4,4"/>
<g id="clust1" class="cluster">
<title>cluster_rank</title>
<path fill="none" stroke="#698b22" d="M20,-8C20,-8 530,-8 530,-8 536,-8 542,-14 542,-20 542,-20 542,-482 542,-482 542,-488 536,-494 530,-494 530,-494 20,-494 20,-494 14,-494 8,-488 8,-482 8,-482 8,-20 8,-20 8,-14 14,-8 20,-8"/>
<text text-anchor="start" x="219" y="-478.5" font-family="Roboto" font-size="8.00"> &#160;&#160;&#160;&#160;&#160;&#160;&#160;&#160;&#160;</text>
<text text-anchor="start" x="242" y="-478.5" font-family="Roboto" font-size="10.00"> &#160;&#160;&#160;&#160;&#160;&#160;&#160;&#160;&#160;</text>
<text text-anchor="start" x="265" y="-478.5" font-family="Roboto" font-weight="bold" font-size="10.00">rank</text>
<text text-anchor="start" x="285" y="-478.5" font-family="Roboto" font-size="10.00"> &#160;&#160;&#160;&#160;&#160;&#160;&#160;&#160;&#160;</text>
<text text-anchor="start" x="308" y="-478.5" font-family="Roboto" font-size="8.00"> &#160;&#160;&#160;&#160;&#160;&#160;&#160;&#160;&#160;</text>
</g>
<!-- rank_models_Program -->
<g id="node1" class="node">
<title>rank_models_Program</title>
<polygon fill="white" stroke="transparent" points="24,-20 24,-69 148,-69 148,-20 24,-20"/>
<polygon fill="#1b563f" stroke="transparent" points="25,-46.5 25,-67.5 147,-67.5 147,-46.5 25,-46.5"/>
<text text-anchor="start" x="46.5" y="-55.5" font-family="Roboto" font-size="8.00"> &#160;&#160;&#160;&#160;&#160;</text>
<text text-anchor="start" x="60.5" y="-55.5" font-family="Roboto" font-weight="bold" font-size="10.00" fill="white"> &#160;&#160;&#160;&#160;&#160;Program &#160;&#160;&#160;&#160;&#160;</text>
<text text-anchor="start" x="27" y="-39.1" font-family="Roboto" font-size="8.00"> &#160;&#160;&#160;&#160;&#160;</text>
<text text-anchor="start" x="41" y="-39.1" font-family="Roboto" font-weight="bold" font-size="8.00">code</text>
<text text-anchor="start" x="60" y="-39.1" font-family="Roboto" font-size="8.00"> &#160;&#160;&#160;&#160;&#160;</text>
<text text-anchor="start" x="81" y="-39.1" font-family="Roboto" font-size="8.00"> &#160;&#160;&#160;&#160;&#160;</text>
<text text-anchor="start" x="95" y="-39.1" font-family="Roboto" font-weight="bold" font-size="8.00">CharField</text>
<text text-anchor="start" x="131" y="-39.1" font-family="Roboto" font-size="8.00"> &#160;&#160;&#160;&#160;&#160;</text>
<text text-anchor="start" x="27" y="-26.1" font-family="Roboto" font-size="8.00"> &#160;&#160;&#160;&#160;&#160;</text>
<text text-anchor="start" x="41" y="-26.1" font-family="Roboto" font-size="8.00">name</text>
<text text-anchor="start" x="63" y="-26.1" font-family="Roboto" font-size="8.00"> &#160;&#160;&#160;&#160;&#160;</text>
<text text-anchor="start" x="81" y="-26.1" font-family="Roboto" font-size="8.00"> &#160;&#160;&#160;&#160;&#160;</text>
<text text-anchor="start" x="95" y="-26.1" font-family="Roboto" font-size="8.00">CharField</text>
<text text-anchor="start" x="131" y="-26.1" font-family="Roboto" font-size="8.00"> &#160;&#160;&#160;&#160;&#160;</text>
<polygon fill="none" stroke="black" points="24,-20 24,-69 148,-69 148,-20 24,-20"/>
</g>
<!-- rank_models_College -->
<g id="node2" class="node">
<title>rank_models_College</title>
<polygon fill="white" stroke="transparent" points="182,-20 182,-69 306,-69 306,-20 182,-20"/>
<polygon fill="#1b563f" stroke="transparent" points="183,-46.5 183,-67.5 305,-67.5 305,-46.5 183,-46.5"/>
<text text-anchor="start" x="207" y="-55.5" font-family="Roboto" font-size="8.00"> &#160;&#160;&#160;&#160;&#160;</text>
<text text-anchor="start" x="221" y="-55.5" font-family="Roboto" font-weight="bold" font-size="10.00" fill="white"> &#160;&#160;&#160;&#160;&#160;College &#160;&#160;&#160;&#160;&#160;</text>
<text text-anchor="start" x="185" y="-39.1" font-family="Roboto" font-size="8.00"> &#160;&#160;&#160;&#160;&#160;</text>
<text text-anchor="start" x="199" y="-39.1" font-family="Roboto" font-weight="bold" font-size="8.00">code</text>
<text text-anchor="start" x="218" y="-39.1" font-family="Roboto" font-size="8.00"> &#160;&#160;&#160;&#160;&#160;</text>
<text text-anchor="start" x="239" y="-39.1" font-family="Roboto" font-size="8.00"> &#160;&#160;&#160;&#160;&#160;</text>
<text text-anchor="start" x="253" y="-39.1" font-family="Roboto" font-weight="bold" font-size="8.00">CharField</text>
<text text-anchor="start" x="289" y="-39.1" font-family="Roboto" font-size="8.00"> &#160;&#160;&#160;&#160;&#160;</text>
<text text-anchor="start" x="185" y="-26.1" font-family="Roboto" font-size="8.00"> &#160;&#160;&#160;&#160;&#160;</text>
<text text-anchor="start" x="199" y="-26.1" font-family="Roboto" font-size="8.00">name</text>
<text text-anchor="start" x="221" y="-26.1" font-family="Roboto" font-size="8.00"> &#160;&#160;&#160;&#160;&#160;</text>
<text text-anchor="start" x="239" y="-26.1" font-family="Roboto" font-size="8.00"> &#160;&#160;&#160;&#160;&#160;</text>
<text text-anchor="start" x="253" y="-26.1" font-family="Roboto" font-size="8.00">CharField</text>
<text text-anchor="start" x="289" y="-26.1" font-family="Roboto" font-size="8.00"> &#160;&#160;&#160;&#160;&#160;</text>
<polygon fill="none" stroke="black" points="182,-20 182,-69 306,-69 306,-20 182,-20"/>
</g>
<!-- rank_models_CollegeProgram -->
<g id="node3" class="node">
<title>rank_models_CollegeProgram</title>
<polygon fill="white" stroke="transparent" points="111.5,-122 111.5,-236 306.5,-236 306.5,-122 111.5,-122"/>
<polygon fill="#1b563f" stroke="transparent" points="113,-214 113,-235 306,-235 306,-214 113,-214"/>
<text text-anchor="start" x="154" y="-223" font-family="Roboto" font-size="8.00"> &#160;&#160;&#160;&#160;&#160;</text>
<text text-anchor="start" x="168" y="-223" font-family="Roboto" font-weight="bold" font-size="10.00" fill="white"> &#160;&#160;&#160;&#160;&#160;CollegeProgram &#160;&#160;&#160;&#160;&#160;</text>
<text text-anchor="start" x="115" y="-206.6" font-family="Roboto" font-size="8.00"> &#160;&#160;&#160;&#160;&#160;</text>
<text text-anchor="start" x="129" y="-206.6" font-family="Roboto" font-weight="bold" font-size="8.00">id</text>
<text text-anchor="start" x="136" y="-206.6" font-family="Roboto" font-size="8.00"> &#160;&#160;&#160;&#160;&#160;</text>
<text text-anchor="start" x="179" y="-206.6" font-family="Roboto" font-size="8.00"> &#160;&#160;&#160;&#160;&#160;</text>
<text text-anchor="start" x="193" y="-206.6" font-family="Roboto" font-weight="bold" font-size="8.00">BigAutoField</text>
<text text-anchor="start" x="241" y="-206.6" font-family="Roboto" font-size="8.00"> &#160;&#160;&#160;&#160;&#160;</text>
<text text-anchor="start" x="115" y="-193.6" font-family="Roboto" font-size="8.00"> &#160;&#160;&#160;&#160;&#160;</text>
<text text-anchor="start" x="129" y="-193.6" font-family="Roboto" font-weight="bold" font-size="8.00">college</text>
<text text-anchor="start" x="157" y="-193.6" font-family="Roboto" font-size="8.00"> &#160;&#160;&#160;&#160;&#160;</text>
<text text-anchor="start" x="179" y="-193.6" font-family="Roboto" font-size="8.00"> &#160;&#160;&#160;&#160;&#160;</text>
<text text-anchor="start" x="193" y="-193.6" font-family="Roboto" font-weight="bold" font-size="8.00">ForeignKey (code)</text>
<text text-anchor="start" x="262" y="-193.6" font-family="Roboto" font-size="8.00"> &#160;&#160;&#160;&#160;&#160;</text>
<text text-anchor="start" x="115" y="-180.6" font-family="Roboto" font-size="8.00"> &#160;&#160;&#160;&#160;&#160;</text>
<text text-anchor="start" x="129" y="-180.6" font-family="Roboto" font-weight="bold" font-size="8.00">program</text>
<text text-anchor="start" x="161" y="-180.6" font-family="Roboto" font-size="8.00"> &#160;&#160;&#160;&#160;&#160;</text>
<text text-anchor="start" x="179" y="-180.6" font-family="Roboto" font-size="8.00"> &#160;&#160;&#160;&#160;&#160;</text>
<text text-anchor="start" x="193" y="-180.6" font-family="Roboto" font-weight="bold" font-size="8.00">ForeignKey (code)</text>
<text text-anchor="start" x="262" y="-180.6" font-family="Roboto" font-size="8.00"> &#160;&#160;&#160;&#160;&#160;</text>
<text text-anchor="start" x="115" y="-167.6" font-family="Roboto" font-size="8.00"> &#160;&#160;&#160;&#160;&#160;</text>
<text text-anchor="start" x="129" y="-167.6" font-family="Roboto" font-size="8.00">cutin</text>
<text text-anchor="start" x="148" y="-167.6" font-family="Roboto" font-size="8.00"> &#160;&#160;&#160;&#160;&#160;</text>
<text text-anchor="start" x="179" y="-167.6" font-family="Roboto" font-size="8.00"> &#160;&#160;&#160;&#160;&#160;</text>
<text text-anchor="start" x="193" y="-167.6" font-family="Roboto" font-size="8.00">PositiveIntegerField</text>
<text text-anchor="start" x="268" y="-167.6" font-family="Roboto" font-size="8.00"> &#160;&#160;&#160;&#160;&#160;</text>
<text text-anchor="start" x="115" y="-154.6" font-family="Roboto" font-size="8.00"> &#160;&#160;&#160;&#160;&#160;</text>
<text text-anchor="start" x="129" y="-154.6" font-family="Roboto" font-size="8.00">cutoff</text>
<text text-anchor="start" x="152" y="-154.6" font-family="Roboto" font-size="8.00"> &#160;&#160;&#160;&#160;&#160;</text>
<text text-anchor="start" x="179" y="-154.6" font-family="Roboto" font-size="8.00"> &#160;&#160;&#160;&#160;&#160;</text>
<text text-anchor="start" x="193" y="-154.6" font-family="Roboto" font-size="8.00">PositiveIntegerField</text>
<text text-anchor="start" x="268" y="-154.6" font-family="Roboto" font-size="8.00"> &#160;&#160;&#160;&#160;&#160;</text>
<text text-anchor="start" x="115" y="-141.6" font-family="Roboto" font-size="8.00"> &#160;&#160;&#160;&#160;&#160;</text>
<text text-anchor="start" x="129" y="-141.6" font-family="Roboto" font-size="8.00">seats</text>
<text text-anchor="start" x="151" y="-141.6" font-family="Roboto" font-size="8.00"> &#160;&#160;&#160;&#160;&#160;</text>
<text text-anchor="start" x="179" y="-141.6" font-family="Roboto" font-size="8.00"> &#160;&#160;&#160;&#160;&#160;</text>
<text text-anchor="start" x="193" y="-141.6" font-family="Roboto" font-size="8.00">PositiveSmallIntegerField</text>
<text text-anchor="start" x="290" y="-141.6" font-family="Roboto" font-size="8.00"> &#160;&#160;&#160;&#160;&#160;</text>
<text text-anchor="start" x="115" y="-128.6" font-family="Roboto" font-size="8.00"> &#160;&#160;&#160;&#160;&#160;</text>
<text text-anchor="start" x="129" y="-128.6" font-family="Roboto" font-size="8.00">type</text>
<text text-anchor="start" x="145" y="-128.6" font-family="Roboto" font-size="8.00"> &#160;&#160;&#160;&#160;&#160;</text>
<text text-anchor="start" x="179" y="-128.6" font-family="Roboto" font-size="8.00"> &#160;&#160;&#160;&#160;&#160;</text>
<text text-anchor="start" x="193" y="-128.6" font-family="Roboto" font-size="8.00">CharField</text>
<text text-anchor="start" x="229" y="-128.6" font-family="Roboto" font-size="8.00"> &#160;&#160;&#160;&#160;&#160;</text>
<polygon fill="none" stroke="black" points="111.5,-122 111.5,-236 306.5,-236 306.5,-122 111.5,-122"/>
</g>
<!-- rank_models_CollegeProgram&#45;&gt;rank_models_Program -->
<g id="edge2" class="edge">
<title>rank_models_CollegeProgram&#45;&gt;rank_models_Program</title>
<path fill="none" stroke="black" d="M133.79,-110.73C130.41,-107.17 127.13,-103.58 124,-100 116.79,-91.75 109.69,-82.12 103.63,-73.27"/>
<polygon fill="black" stroke="black" points="131.37,-113.26 140.84,-118 136.39,-108.38 131.37,-113.26"/>
<text text-anchor="middle" x="174.5" y="-93.6" font-family="Roboto" font-size="8.00"> program (collegeprogram)</text>
</g>
<!-- rank_models_CollegeProgram&#45;&gt;rank_models_College -->
<g id="edge1" class="edge">
<title>rank_models_CollegeProgram&#45;&gt;rank_models_College</title>
<path fill="none" stroke="black" d="M227.48,-108.04C230.74,-95.69 233.96,-83.52 236.67,-73.24"/>
<polygon fill="black" stroke="black" points="224.03,-107.39 224.86,-117.95 230.8,-109.18 224.03,-107.39"/>
<text text-anchor="middle" x="279.5" y="-93.6" font-family="Roboto" font-size="8.00"> college (collegeprogram)</text>
</g>
<!-- rank_models_Addmission -->
<g id="node4" class="node">
<title>rank_models_Addmission</title>
<polygon fill="white" stroke="transparent" points="210,-289 210,-455 432,-455 432,-289 210,-289"/>
<polygon fill="#1b563f" stroke="transparent" points="211,-433 211,-454 431,-454 431,-433 211,-433"/>
<text text-anchor="start" x="274.5" y="-442" font-family="Roboto" font-size="8.00"> &#160;&#160;&#160;&#160;&#160;</text>
<text text-anchor="start" x="288.5" y="-442" font-family="Roboto" font-weight="bold" font-size="10.00" fill="white"> &#160;&#160;&#160;&#160;&#160;Addmission &#160;&#160;&#160;&#160;&#160;</text>
<text text-anchor="start" x="213" y="-425.6" font-family="Roboto" font-size="8.00"> &#160;&#160;&#160;&#160;&#160;</text>
<text text-anchor="start" x="227" y="-425.6" font-family="Roboto" font-weight="bold" font-size="8.00">id</text>
<text text-anchor="start" x="234" y="-425.6" font-family="Roboto" font-size="8.00"> &#160;&#160;&#160;&#160;&#160;</text>
<text text-anchor="start" x="304" y="-425.6" font-family="Roboto" font-size="8.00"> &#160;&#160;&#160;&#160;&#160;</text>
<text text-anchor="start" x="318" y="-425.6" font-family="Roboto" font-weight="bold" font-size="8.00">BigAutoField</text>
<text text-anchor="start" x="366" y="-425.6" font-family="Roboto" font-size="8.00"> &#160;&#160;&#160;&#160;&#160;</text>
<text text-anchor="start" x="213" y="-412.6" font-family="Roboto" font-size="8.00"> &#160;&#160;&#160;&#160;&#160;</text>
<text text-anchor="start" x="227" y="-412.6" font-family="Roboto" font-weight="bold" font-size="8.00">collegeprogram</text>
<text text-anchor="start" x="286" y="-412.6" font-family="Roboto" font-size="8.00"> &#160;&#160;&#160;&#160;&#160;</text>
<text text-anchor="start" x="304" y="-412.6" font-family="Roboto" font-size="8.00"> &#160;&#160;&#160;&#160;&#160;</text>
<text text-anchor="start" x="318" y="-412.6" font-family="Roboto" font-weight="bold" font-size="8.00">ForeignKey (id)</text>
<text text-anchor="start" x="376" y="-412.6" font-family="Roboto" font-size="8.00"> &#160;&#160;&#160;&#160;&#160;</text>
<text text-anchor="start" x="213" y="-399.6" font-family="Roboto" font-size="8.00"> &#160;&#160;&#160;&#160;&#160;</text>
<text text-anchor="start" x="227" y="-399.6" font-family="Roboto" font-weight="bold" font-size="8.00">district</text>
<text text-anchor="start" x="255" y="-399.6" font-family="Roboto" font-size="8.00"> &#160;&#160;&#160;&#160;&#160;</text>
<text text-anchor="start" x="304" y="-399.6" font-family="Roboto" font-size="8.00"> &#160;&#160;&#160;&#160;&#160;</text>
<text text-anchor="start" x="318" y="-399.6" font-family="Roboto" font-weight="bold" font-size="8.00">ForeignKey (code)</text>
<text text-anchor="start" x="387" y="-399.6" font-family="Roboto" font-size="8.00"> &#160;&#160;&#160;&#160;&#160;</text>
<text text-anchor="start" x="213" y="-386.6" font-family="Roboto" font-size="8.00"> &#160;&#160;&#160;&#160;&#160;</text>
<text text-anchor="start" x="227" y="-386.6" font-family="Roboto" font-size="8.00">batch</text>
<text text-anchor="start" x="249" y="-386.6" font-family="Roboto" font-size="8.00"> &#160;&#160;&#160;&#160;&#160;</text>
<text text-anchor="start" x="304" y="-386.6" font-family="Roboto" font-size="8.00"> &#160;&#160;&#160;&#160;&#160;</text>
<text text-anchor="start" x="318" y="-386.6" font-family="Roboto" font-size="8.00">PositiveSmallIntegerField</text>
<text text-anchor="start" x="415" y="-386.6" font-family="Roboto" font-size="8.00"> &#160;&#160;&#160;&#160;&#160;</text>
<text text-anchor="start" x="213" y="-373.6" font-family="Roboto" font-size="8.00"> &#160;&#160;&#160;&#160;&#160;</text>
<text text-anchor="start" x="227" y="-373.6" font-family="Roboto" font-size="8.00">first_name</text>
<text text-anchor="start" x="268" y="-373.6" font-family="Roboto" font-size="8.00"> &#160;&#160;&#160;&#160;&#160;</text>
<text text-anchor="start" x="304" y="-373.6" font-family="Roboto" font-size="8.00"> &#160;&#160;&#160;&#160;&#160;</text>
<text text-anchor="start" x="318" y="-373.6" font-family="Roboto" font-size="8.00">CharField</text>
<text text-anchor="start" x="354" y="-373.6" font-family="Roboto" font-size="8.00"> &#160;&#160;&#160;&#160;&#160;</text>
<text text-anchor="start" x="213" y="-360.6" font-family="Roboto" font-size="8.00"> &#160;&#160;&#160;&#160;&#160;</text>
<text text-anchor="start" x="227" y="-360.6" font-family="Roboto" font-size="8.00">gender</text>
<text text-anchor="start" x="253" y="-360.6" font-family="Roboto" font-size="8.00"> &#160;&#160;&#160;&#160;&#160;</text>
<text text-anchor="start" x="304" y="-360.6" font-family="Roboto" font-size="8.00"> &#160;&#160;&#160;&#160;&#160;</text>
<text text-anchor="start" x="318" y="-360.6" font-family="Roboto" font-size="8.00">CharField</text>
<text text-anchor="start" x="354" y="-360.6" font-family="Roboto" font-size="8.00"> &#160;&#160;&#160;&#160;&#160;</text>
<text text-anchor="start" x="213" y="-347.6" font-family="Roboto" font-size="8.00"> &#160;&#160;&#160;&#160;&#160;</text>
<text text-anchor="start" x="227" y="-347.6" font-family="Roboto" font-size="8.00">last_name</text>
<text text-anchor="start" x="267" y="-347.6" font-family="Roboto" font-size="8.00"> &#160;&#160;&#160;&#160;&#160;</text>
<text text-anchor="start" x="304" y="-347.6" font-family="Roboto" font-size="8.00"> &#160;&#160;&#160;&#160;&#160;</text>
<text text-anchor="start" x="318" y="-347.6" font-family="Roboto" font-size="8.00">CharField</text>
<text text-anchor="start" x="354" y="-347.6" font-family="Roboto" font-size="8.00"> &#160;&#160;&#160;&#160;&#160;</text>
<text text-anchor="start" x="213" y="-334.6" font-family="Roboto" font-size="8.00"> &#160;&#160;&#160;&#160;&#160;</text>
<text text-anchor="start" x="227" y="-334.6" font-family="Roboto" font-size="8.00">middle_name</text>
<text text-anchor="start" x="278" y="-334.6" font-family="Roboto" font-size="8.00"> &#160;&#160;&#160;&#160;&#160;</text>
<text text-anchor="start" x="304" y="-334.6" font-family="Roboto" font-size="8.00"> &#160;&#160;&#160;&#160;&#160;</text>
<text text-anchor="start" x="318" y="-334.6" font-family="Roboto" font-size="8.00">CharField</text>
<text text-anchor="start" x="354" y="-334.6" font-family="Roboto" font-size="8.00"> &#160;&#160;&#160;&#160;&#160;</text>
<text text-anchor="start" x="213" y="-321.6" font-family="Roboto" font-size="8.00"> &#160;&#160;&#160;&#160;&#160;</text>
<text text-anchor="start" x="227" y="-321.6" font-family="Roboto" font-size="8.00">quota</text>
<text text-anchor="start" x="249" y="-321.6" font-family="Roboto" font-size="8.00"> &#160;&#160;&#160;&#160;&#160;</text>
<text text-anchor="start" x="304" y="-321.6" font-family="Roboto" font-size="8.00"> &#160;&#160;&#160;&#160;&#160;</text>
<text text-anchor="start" x="318" y="-321.6" font-family="Roboto" font-size="8.00">CharField</text>
<text text-anchor="start" x="354" y="-321.6" font-family="Roboto" font-size="8.00"> &#160;&#160;&#160;&#160;&#160;</text>
<text text-anchor="start" x="213" y="-308.6" font-family="Roboto" font-size="8.00"> &#160;&#160;&#160;&#160;&#160;</text>
<text text-anchor="start" x="227" y="-308.6" font-family="Roboto" font-size="8.00">rank</text>
<text text-anchor="start" x="244" y="-308.6" font-family="Roboto" font-size="8.00"> &#160;&#160;&#160;&#160;&#160;</text>
<text text-anchor="start" x="304" y="-308.6" font-family="Roboto" font-size="8.00"> &#160;&#160;&#160;&#160;&#160;</text>
<text text-anchor="start" x="318" y="-308.6" font-family="Roboto" font-size="8.00">PositiveIntegerField</text>
<text text-anchor="start" x="393" y="-308.6" font-family="Roboto" font-size="8.00"> &#160;&#160;&#160;&#160;&#160;</text>
<text text-anchor="start" x="213" y="-295.6" font-family="Roboto" font-size="8.00"> &#160;&#160;&#160;&#160;&#160;</text>
<text text-anchor="start" x="227" y="-295.6" font-family="Roboto" font-size="8.00">score</text>
<text text-anchor="start" x="249" y="-295.6" font-family="Roboto" font-size="8.00"> &#160;&#160;&#160;&#160;&#160;</text>
<text text-anchor="start" x="304" y="-295.6" font-family="Roboto" font-size="8.00"> &#160;&#160;&#160;&#160;&#160;</text>
<text text-anchor="start" x="318" y="-295.6" font-family="Roboto" font-size="8.00">DecimalField</text>
<text text-anchor="start" x="367" y="-295.6" font-family="Roboto" font-size="8.00"> &#160;&#160;&#160;&#160;&#160;</text>
<polygon fill="none" stroke="black" points="210,-289 210,-455 432,-455 432,-289 210,-289"/>
</g>
<!-- rank_models_Addmission&#45;&gt;rank_models_CollegeProgram -->
<g id="edge3" class="edge">
<title>rank_models_Addmission&#45;&gt;rank_models_CollegeProgram</title>
<path fill="none" stroke="black" d="M265.35,-276.1C258.17,-263.85 250.98,-251.59 244.26,-240.13"/>
<polygon fill="black" stroke="black" points="262.49,-278.14 270.57,-285 268.53,-274.6 262.49,-278.14"/>
<text text-anchor="middle" x="314.5" y="-260.6" font-family="Roboto" font-size="8.00"> collegeprogram (addmission)</text>
</g>
<!-- rank_models_District -->
<g id="node6" class="node">
<title>rank_models_District</title>
<polygon fill="white" stroke="transparent" points="340.5,-148 340.5,-210 525.5,-210 525.5,-148 340.5,-148"/>
<polygon fill="#1b563f" stroke="transparent" points="342,-188 342,-209 525,-209 525,-188 342,-188"/>
<text text-anchor="start" x="397.5" y="-197" font-family="Roboto" font-size="8.00"> &#160;&#160;&#160;&#160;&#160;</text>
<text text-anchor="start" x="411.5" y="-197" font-family="Roboto" font-weight="bold" font-size="10.00" fill="white"> &#160;&#160;&#160;&#160;&#160;District &#160;&#160;&#160;&#160;&#160;</text>
<text text-anchor="start" x="344" y="-180.6" font-family="Roboto" font-size="8.00"> &#160;&#160;&#160;&#160;&#160;</text>
<text text-anchor="start" x="358" y="-180.6" font-family="Roboto" font-weight="bold" font-size="8.00">code</text>
<text text-anchor="start" x="377" y="-180.6" font-family="Roboto" font-size="8.00"> &#160;&#160;&#160;&#160;&#160;</text>
<text text-anchor="start" x="398" y="-180.6" font-family="Roboto" font-size="8.00"> &#160;&#160;&#160;&#160;&#160;</text>
<text text-anchor="start" x="412" y="-180.6" font-family="Roboto" font-weight="bold" font-size="8.00">PositiveSmallIntegerField</text>
<text text-anchor="start" x="509" y="-180.6" font-family="Roboto" font-size="8.00"> &#160;&#160;&#160;&#160;&#160;</text>
<text text-anchor="start" x="344" y="-167.6" font-family="Roboto" font-size="8.00"> &#160;&#160;&#160;&#160;&#160;</text>
<text text-anchor="start" x="358" y="-167.6" font-family="Roboto" font-weight="bold" font-size="8.00">zone</text>
<text text-anchor="start" x="377" y="-167.6" font-family="Roboto" font-size="8.00"> &#160;&#160;&#160;&#160;&#160;</text>
<text text-anchor="start" x="398" y="-167.6" font-family="Roboto" font-size="8.00"> &#160;&#160;&#160;&#160;&#160;</text>
<text text-anchor="start" x="412" y="-167.6" font-family="Roboto" font-weight="bold" font-size="8.00">ForeignKey (id)</text>
<text text-anchor="start" x="470" y="-167.6" font-family="Roboto" font-size="8.00"> &#160;&#160;&#160;&#160;&#160;</text>
<text text-anchor="start" x="344" y="-154.6" font-family="Roboto" font-size="8.00"> &#160;&#160;&#160;&#160;&#160;</text>
<text text-anchor="start" x="358" y="-154.6" font-family="Roboto" font-size="8.00">name</text>
<text text-anchor="start" x="380" y="-154.6" font-family="Roboto" font-size="8.00"> &#160;&#160;&#160;&#160;&#160;</text>
<text text-anchor="start" x="398" y="-154.6" font-family="Roboto" font-size="8.00"> &#160;&#160;&#160;&#160;&#160;</text>
<text text-anchor="start" x="412" y="-154.6" font-family="Roboto" font-size="8.00">CharField</text>
<text text-anchor="start" x="448" y="-154.6" font-family="Roboto" font-size="8.00"> &#160;&#160;&#160;&#160;&#160;</text>
<polygon fill="none" stroke="black" points="340.5,-148 340.5,-210 525.5,-210 525.5,-148 340.5,-148"/>
</g>
<!-- rank_models_Addmission&#45;&gt;rank_models_District -->
<g id="edge4" class="edge">
<title>rank_models_Addmission&#45;&gt;rank_models_District</title>
<path fill="none" stroke="black" d="M376.59,-276.2C389.56,-254.08 402.57,-231.9 412.81,-214.43"/>
<polygon fill="black" stroke="black" points="373.47,-274.6 371.43,-285 379.51,-278.14 373.47,-274.6"/>
<text text-anchor="middle" x="428" y="-260.6" font-family="Roboto" font-size="8.00"> district (addmission)</text>
</g>
<!-- rank_models_Zone -->
<g id="node5" class="node">
<title>rank_models_Zone</title>
<polygon fill="white" stroke="transparent" points="340.5,-20 340.5,-69 525.5,-69 525.5,-20 340.5,-20"/>
<polygon fill="#1b563f" stroke="transparent" points="342,-46.5 342,-67.5 525,-67.5 525,-46.5 342,-46.5"/>
<text text-anchor="start" x="402" y="-55.5" font-family="Roboto" font-size="8.00"> &#160;&#160;&#160;&#160;&#160;</text>
<text text-anchor="start" x="416" y="-55.5" font-family="Roboto" font-weight="bold" font-size="10.00" fill="white"> &#160;&#160;&#160;&#160;&#160;Zone &#160;&#160;&#160;&#160;&#160;</text>
<text text-anchor="start" x="344" y="-39.1" font-family="Roboto" font-size="8.00"> &#160;&#160;&#160;&#160;&#160;</text>
<text text-anchor="start" x="358" y="-39.1" font-family="Roboto" font-weight="bold" font-size="8.00">id</text>
<text text-anchor="start" x="365" y="-39.1" font-family="Roboto" font-size="8.00"> &#160;&#160;&#160;&#160;&#160;</text>
<text text-anchor="start" x="398" y="-39.1" font-family="Roboto" font-size="8.00"> &#160;&#160;&#160;&#160;&#160;</text>
<text text-anchor="start" x="412" y="-39.1" font-family="Roboto" font-weight="bold" font-size="8.00">PositiveSmallIntegerField</text>
<text text-anchor="start" x="509" y="-39.1" font-family="Roboto" font-size="8.00"> &#160;&#160;&#160;&#160;&#160;</text>
<text text-anchor="start" x="344" y="-26.1" font-family="Roboto" font-size="8.00"> &#160;&#160;&#160;&#160;&#160;</text>
<text text-anchor="start" x="358" y="-26.1" font-family="Roboto" font-size="8.00">name</text>
<text text-anchor="start" x="380" y="-26.1" font-family="Roboto" font-size="8.00"> &#160;&#160;&#160;&#160;&#160;</text>
<text text-anchor="start" x="398" y="-26.1" font-family="Roboto" font-size="8.00"> &#160;&#160;&#160;&#160;&#160;</text>
<text text-anchor="start" x="412" y="-26.1" font-family="Roboto" font-size="8.00">CharField</text>
<text text-anchor="start" x="448" y="-26.1" font-family="Roboto" font-size="8.00"> &#160;&#160;&#160;&#160;&#160;</text>
<polygon fill="none" stroke="black" points="340.5,-20 340.5,-69 525.5,-69 525.5,-20 340.5,-20"/>
</g>
<!-- rank_models_District&#45;&gt;rank_models_Zone -->
<g id="edge5" class="edge">
<title>rank_models_District&#45;&gt;rank_models_Zone</title>
<path fill="none" stroke="black" d="M433,-133.75C433,-113.76 433,-90.77 433,-73.26"/>
<polygon fill="black" stroke="black" points="429.5,-133.88 433,-143.88 436.5,-133.88 429.5,-133.88"/>
<text text-anchor="middle" x="460.5" y="-93.6" font-family="Roboto" font-size="8.00"> zone (district)</text>
</g>
</g>
</svg>
